<svg version="1.1" id="Layer_1" xmlns="http://www.w3.org/2000/svg" xmlns:xlink="http://www.w3.org/1999/xlink" x="0px" y="0px"
	 width="100%" viewBox="0 0 538 464" enable-background="new 0 0 538 464" xml:space="preserve">
<path fill="#000000" opacity="1.000000" stroke="none" 
	d="
M539.000000,159.000000 
	C539.000000,261.333313 539.000000,363.166626 539.000000,464.999939 
	C359.666748,464.999969 180.333466,464.999969 1.000151,465.000000 
	C1.000101,310.333435 1.000101,155.666870 1.000050,1.000234 
	C180.333191,1.000156 359.666382,1.000156 538.999756,1.000078 
	C539.000000,53.500000 539.000000,106.000000 539.000000,159.000000 
M82.881485,312.499969 
	C82.881485,351.117920 82.881485,389.735840 82.881485,428.592896 
	C211.736679,428.592896 340.129822,428.592896 468.751495,428.592896 
	C468.751495,299.806580 468.751495,171.246307 468.751495,42.446510 
	C340.148163,42.446510 211.752411,42.446510 82.881485,42.446510 
	C82.881485,132.286621 82.881485,221.893280 82.881485,312.499969 
z"/>
<path fill="#F6F6F6" opacity="1.000000" stroke="none" 
	d="
M82.881485,311.999939 
	C82.881485,221.893280 82.881485,132.286621 82.881485,42.446510 
	C211.752411,42.446510 340.148163,42.446510 468.751495,42.446510 
	C468.751495,171.246307 468.751495,299.806580 468.751495,428.592896 
	C340.129822,428.592896 211.736679,428.592896 82.881485,428.592896 
	C82.881485,389.735840 82.881485,351.117920 82.881485,311.999939 
M385.499786,419.662811 
	C410.122559,419.662811 434.745331,419.662811 459.593628,419.662811 
	C459.593628,296.785095 459.593628,174.377670 459.593628,51.776855 
	C336.946686,51.776855 214.586792,51.776855 92.254211,51.776855 
	C92.254211,174.551071 92.254211,296.945496 92.254211,419.662750 
	C189.897781,419.662750 287.198761,419.662750 385.499786,419.662811 
z"/>
<path fill="#020202" opacity="1.000000" stroke="none" 
	d="
M384.999756,419.662781 
	C287.198761,419.662750 189.897781,419.662750 92.254211,419.662750 
	C92.254211,296.945496 92.254211,174.551071 92.254211,51.776855 
	C214.586792,51.776855 336.946686,51.776855 459.593628,51.776855 
	C459.593628,174.377670 459.593628,296.785095 459.593628,419.662811 
	C434.745331,419.662811 410.122559,419.662811 384.999756,419.662781 
M371.173828,309.848999 
	C370.100952,309.957153 369.028107,310.065338 367.172302,309.745422 
	C364.744720,310.147919 362.317169,310.550446 359.224884,311.143677 
	C359.441650,312.779694 359.658417,314.415741 359.964783,316.970795 
	C359.964783,320.885315 359.964783,324.799835 359.964783,328.707672 
	C357.545990,328.707672 355.752838,328.707672 353.418884,328.707672 
	C353.418884,322.367645 353.418884,316.163208 353.418884,309.827271 
	C350.654297,309.827271 348.433838,309.827271 345.962799,309.827271 
	C345.824615,312.703491 345.699402,315.310333 344.876740,317.862762 
	C343.947479,317.901611 343.018188,317.940430 341.715485,317.367920 
	C338.926392,309.728729 334.343506,308.085022 321.028198,310.012756 
	C321.028198,328.686768 321.028198,347.377625 321.028198,366.049561 
	C323.622498,366.049561 325.867584,366.049561 328.538605,366.049561 
	C328.538605,362.160492 328.538605,358.572113 328.538605,354.529785 
	C336.038208,355.209869 340.944183,352.536377 342.906128,345.074738 
	C343.797882,345.075928 344.689667,345.077118 345.750122,345.991028 
	C345.750122,352.711670 345.750122,359.432281 345.750122,366.005676 
	C348.755859,366.005676 350.986847,366.005676 353.614960,366.005676 
	C353.614960,356.103149 353.614960,346.557587 353.614960,336.905487 
	C355.904968,336.905487 357.785126,336.905487 360.005463,336.905487 
	C360.005463,346.759094 360.005463,356.316864 360.005463,366.911530 
	C363.038269,366.203918 365.552765,365.617249 368.761078,365.036407 
	C369.832428,365.362640 370.903748,365.688904 372.902954,366.130646 
	C374.989746,366.130646 377.076508,366.130646 379.018372,366.130646 
	C379.018372,346.859344 379.018372,328.272308 379.018372,309.319733 
	C376.391083,309.535156 374.108154,309.722382 371.173828,309.848999 
M165.145233,362.919342 
	C166.099747,362.278656 167.054260,361.638000 168.428741,361.590302 
	C169.484924,367.701477 173.569366,367.149200 178.343597,366.193298 
	C177.921432,364.918976 177.616714,364.001709 177.313675,363.083923 
	C175.685806,358.153717 172.242020,353.309296 177.416382,348.259491 
	C178.343628,347.354553 178.095993,345.090210 178.124222,343.448944 
	C178.207214,338.622833 177.962814,333.785248 178.191238,328.968475 
	C179.137665,309.010895 174.149734,309.070312 157.823502,309.716339 
	C157.544174,309.727356 157.275818,310.015717 156.948273,310.206116 
	C156.948273,328.894104 156.948273,347.598938 156.948273,366.660248 
	C159.991302,365.849976 164.315475,369.109283 165.145233,362.919342 
M247.958420,328.086212 
	C247.309097,327.723145 246.659775,327.360077 245.827667,326.096710 
	C245.824326,323.935516 245.540741,321.721954 245.930542,319.634186 
	C246.139557,318.514679 247.753677,316.659088 248.301880,316.801208 
	C249.596405,317.136841 250.884506,318.296326 251.684921,319.459869 
	C252.225189,320.245239 251.930389,321.605042 252.001083,322.595245 
	C254.782867,322.595245 257.162750,322.595245 259.495544,322.595245 
	C260.247406,313.708221 256.728729,308.917969 249.567017,308.642761 
	C241.655975,308.338745 237.790588,312.396027 237.777039,321.091125 
	C237.758896,332.732056 237.494370,344.384644 237.969116,356.006317 
	C238.095459,359.099121 239.772278,362.975311 242.062683,364.969635 
	C248.227341,370.337433 256.961060,366.700470 260.421051,357.663025 
	C260.898773,349.971344 261.585602,342.283081 261.710449,334.585693 
	C261.742523,332.607605 260.003693,330.600861 258.152557,328.656097 
	C254.757782,328.664032 251.363022,328.671967 247.958420,328.086212 
M272.091827,361.058624 
	C273.043762,361.044159 273.995697,361.029724 275.314117,361.650513 
	C276.226837,368.000977 280.596008,366.873993 285.258667,366.341309 
	C284.791473,364.878693 284.492859,363.789276 284.098389,362.735687 
	C282.304443,357.943909 279.149231,353.258209 284.180786,348.343811 
	C285.122070,347.424469 284.960144,345.193390 284.993622,343.561218 
	C285.092590,338.742188 285.035583,333.919952 285.037384,329.098969 
	C285.044342,310.444366 283.369324,308.832458 264.818756,309.675842 
	C264.537598,309.688629 264.268280,309.962250 263.298004,310.498444 
	C263.298004,321.710327 263.298004,333.298187 262.677551,345.256683 
	C262.884796,348.543762 263.092041,351.830841 263.496307,356.009369 
	C263.496307,359.441162 263.496307,362.872986 263.496307,366.340210 
	C266.444275,366.340210 268.680817,366.340210 271.049835,366.340210 
	C271.170898,364.380096 271.272675,362.732208 272.091827,361.058624 
M203.354538,316.552521 
	C200.167252,310.878174 196.450928,308.648285 191.463226,309.580566 
	C186.507935,310.506714 182.887634,313.496796 182.734238,318.484314 
	C182.335602,331.447266 182.306870,344.437988 182.691376,357.400970 
	C182.854752,362.908417 187.952805,366.647858 193.376938,366.514496 
	C198.744675,366.382538 203.231628,362.382141 203.878616,357.005676 
	C204.116089,355.032379 204.056061,353.023285 204.913483,351.212311 
	C205.292450,354.305176 205.562698,357.416931 206.095490,360.483063 
	C206.368317,362.053101 207.110855,363.541473 207.851532,365.881958 
	C210.248016,366.311462 212.644501,366.740997 215.723236,367.292786 
	C215.723236,355.009033 215.723236,343.679413 215.723236,332.349792 
	C216.049271,332.333099 216.375305,332.316376 216.701340,332.299652 
	C218.380585,343.735687 220.059814,355.171692 221.735901,366.586243 
	C225.919647,366.586243 229.665024,366.586243 234.160690,366.586243 
	C234.160690,348.520813 234.164642,330.744781 234.151306,312.968781 
	C234.150467,311.848969 234.014709,310.729279 233.933151,309.478241 
	C231.374786,309.478241 229.129990,309.478241 226.060501,309.478241 
	C226.060501,315.466919 226.060501,321.244934 225.391510,326.786133 
	C224.492355,326.576355 223.593216,326.366547 222.403610,325.693390 
	C222.399521,325.151886 222.395432,324.610413 223.037735,323.894989 
	C223.304230,322.671082 223.570724,321.447205 223.837204,320.223297 
	C223.119324,320.210571 222.401428,320.197876 221.102066,319.577484 
	C220.847717,316.219818 220.593369,312.862183 220.296280,308.940216 
	C215.708466,309.307312 211.723404,309.626160 207.008240,310.134979 
	C205.922852,312.453308 204.837448,314.771606 203.354538,316.552521 
M283.202881,214.648148 
	C283.998077,211.478638 284.793304,208.309128 285.668823,204.819427 
	C282.335968,204.622391 279.447693,204.451645 276.206299,204.260010 
	C282.915039,175.232742 289.512024,146.689102 296.168121,117.889618 
	C278.431335,117.889618 261.337067,117.889618 243.955704,117.889618 
	C237.350159,146.795853 230.781784,175.539444 224.149551,204.562485 
	C227.679581,204.720688 230.418030,204.843430 233.517380,204.982330 
	C228.311386,227.585556 223.227310,249.659393 218.038361,272.188629 
	C254.079163,272.188629 289.363678,272.218323 324.647400,272.058533 
	C325.817841,272.053253 327.706848,270.314056 328.027588,269.066101 
	C330.137665,260.855804 331.915344,252.559875 333.787659,244.288742 
	C334.616364,240.627945 335.412811,236.959854 336.327698,232.826172 
	C316.937164,232.826172 298.170471,232.826172 279.030853,232.826172 
	C280.448761,226.759842 281.767426,221.118301 283.202881,214.648148 
M288.778839,360.998657 
	C288.544861,362.718719 288.310883,364.438812 288.057922,366.298553 
	C290.920715,366.298553 293.205414,366.298553 295.776825,366.298553 
	C296.674500,359.757904 297.547028,353.400360 298.389618,347.261047 
	C301.353394,347.261047 303.759949,347.261047 306.227264,347.261047 
	C307.189667,353.836365 308.099731,360.053925 308.989807,366.135010 
	C311.804779,366.135010 314.185242,366.135010 316.844879,366.135010 
	C313.623566,347.682709 310.481354,329.668762 307.323914,311.657471 
	C307.211700,311.017242 306.948761,310.403412 306.647064,309.423187 
	C304.335938,309.423187 302.016418,309.580505 299.727875,309.381531 
	C297.134064,309.156067 296.276031,310.285278 295.927551,312.721252 
	C293.664398,328.540161 291.275208,344.340973 288.778839,360.998657 
M419.374725,316.336945 
	C424.979645,318.757721 420.555664,324.248749 422.910492,327.720581 
	C425.241364,327.720581 427.627075,327.720581 430.100159,327.720581 
	C430.100159,324.233826 430.350311,321.061279 430.044830,317.943176 
	C429.513611,312.521210 424.966339,308.405334 419.725098,308.206940 
	C414.613373,308.013428 409.910614,311.385162 408.876617,316.651459 
	C407.652771,322.884491 407.089172,329.090271 411.951996,334.485596 
	C414.722321,337.559265 417.388153,340.909821 419.243622,344.570343 
	C420.871063,347.781067 421.600739,351.558350 422.080933,355.171265 
	C422.225159,356.256439 420.202881,357.629608 419.173096,358.870819 
	C418.218475,357.715302 416.655151,356.663116 416.437744,355.382416 
	C416.004089,352.827728 416.309235,350.147675 416.309235,347.485443 
	C413.365631,347.485443 410.967407,347.485443 408.092957,347.485443 
	C408.291229,351.331970 408.114075,354.847565 408.726227,358.219910 
	C409.770599,363.973480 414.672974,367.434448 420.317444,366.932465 
	C425.605225,366.462189 429.707703,362.218781 430.151215,356.716919 
	C430.680908,350.145538 430.444672,343.941376 425.219757,338.755280 
	C422.311188,335.868347 420.238586,332.121643 417.888489,328.694336 
	C415.321838,324.951233 415.602325,319.759552 419.374725,316.336945 
M390.986084,324.666840 
	C390.987427,323.833893 390.735626,322.890472 391.041168,322.190247 
	C391.746429,320.574066 392.722137,319.075897 393.588104,317.529846 
	C394.651886,318.913971 395.768860,320.261871 396.749237,321.702759 
	C397.072174,322.177399 397.041870,322.892426 397.167175,323.470276 
	C399.682404,323.470276 401.948303,323.470276 404.168488,323.470276 
	C405.294464,315.764191 401.411377,310.210358 394.742798,309.667542 
	C388.229858,309.137451 383.159058,313.835632 383.041138,321.033752 
	C382.855621,332.358551 382.713318,343.699402 383.165100,355.009003 
	C383.284210,357.991272 385.073273,361.398438 387.121490,363.695679 
	C390.121094,367.059998 395.883881,367.096069 399.592407,364.727600 
	C403.938812,361.951691 405.519379,356.917664 403.995483,350.735962 
	C401.717316,350.735962 399.447296,350.735962 397.062927,350.735962 
	C396.946198,351.637115 397.013184,352.350525 396.752045,352.911072 
	C395.883759,354.774597 394.971069,358.092377 393.943451,358.142395 
	C390.194946,358.324951 391.024261,354.959229 391.007782,352.613647 
	C390.944672,343.618439 390.984497,334.622498 390.986084,324.666840 
M130.297592,320.521210 
	C130.297592,316.911346 130.297592,313.301514 130.297592,309.606659 
	C127.490494,309.606659 125.267197,309.606659 123.059685,309.606659 
	C123.059685,328.672943 123.059685,347.412689 123.059685,366.128632 
	C129.235840,366.128632 135.115555,366.128632 140.929169,366.128632 
	C140.929169,363.552124 140.929169,361.318176 140.929169,358.705444 
	C137.322250,358.705444 134.062668,358.705444 130.297592,358.705444 
	C130.297592,346.055511 130.297592,333.784637 130.297592,320.521210 
M152.989960,312.842163 
	C152.529922,306.269318 148.054077,310.715973 145.289764,309.552277 
	C145.289764,328.624817 145.289764,347.162476 145.289764,365.849426 
	C147.919174,365.849426 150.298309,365.849426 152.989716,365.849426 
	C152.989716,348.287476 152.989716,331.029388 152.989960,312.842163 
z"/>
<path fill="#FDFDFD" opacity="1.000000" stroke="none" 
	d="
M283.144470,215.062469 
	C281.767426,221.118301 280.448761,226.759842 279.030853,232.826172 
	C298.170471,232.826172 316.937164,232.826172 336.327698,232.826172 
	C335.412811,236.959854 334.616364,240.627945 333.787659,244.288742 
	C331.915344,252.559875 330.137665,260.855804 328.027588,269.066101 
	C327.706848,270.314056 325.817841,272.053253 324.647400,272.058533 
	C289.363678,272.218323 254.079163,272.188629 218.038361,272.188629 
	C223.227310,249.659393 228.311386,227.585556 233.517380,204.982330 
	C230.418030,204.843430 227.679581,204.720688 224.149551,204.562485 
	C230.781784,175.539444 237.350159,146.795853 243.955704,117.889618 
	C261.337067,117.889618 278.431335,117.889618 296.168121,117.889618 
	C289.512024,146.689102 282.915039,175.232742 276.206299,204.260010 
	C279.447693,204.451645 282.335968,204.622391 285.668823,204.819427 
	C284.793304,208.309128 283.998077,211.478638 283.144470,215.062469 
z"/>
<path fill="#F1F1F1" opacity="1.000000" stroke="none" 
	d="
M226.060501,327.022949 
	C226.060501,321.244934 226.060501,315.466919 226.060501,309.478241 
	C229.129990,309.478241 231.374786,309.478241 233.933151,309.478241 
	C234.014709,310.729279 234.150467,311.848969 234.151306,312.968781 
	C234.164642,330.744781 234.160690,348.520813 234.160690,366.586243 
	C229.665024,366.586243 225.919647,366.586243 221.735901,366.586243 
	C220.059814,355.171692 218.380585,343.735687 216.701340,332.299652 
	C216.375305,332.316376 216.049271,332.333099 215.723236,332.349792 
	C215.723236,343.679413 215.723236,355.009033 215.723236,367.292786 
	C212.644501,366.740997 210.248016,366.311462 207.856567,365.012878 
	C207.820526,346.077545 207.779434,328.011292 207.738342,309.945038 
	C211.723404,309.626160 215.708466,309.307312 220.296280,308.940216 
	C220.593369,312.862183 220.847717,316.219818 221.427658,320.277435 
	C221.965942,322.007904 222.178635,323.038391 222.391342,324.068909 
	C222.395432,324.610413 222.399521,325.151886 222.499298,326.360626 
	C223.406708,332.643677 224.218430,338.259460 225.030151,343.875275 
	C225.373596,343.820618 225.717056,343.765961 226.060501,343.711304 
	C226.060501,338.148529 226.060501,332.585724 226.060501,327.022949 
z"/>
<path fill="#F1F1F1" opacity="1.000000" stroke="none" 
	d="
M204.131729,351.030518 
	C204.056061,353.023285 204.116089,355.032379 203.878616,357.005676 
	C203.231628,362.382141 198.744675,366.382538 193.376938,366.514496 
	C187.952805,366.647858 182.854752,362.908417 182.691376,357.400970 
	C182.306870,344.437988 182.335602,331.447266 182.734238,318.484314 
	C182.887634,313.496796 186.507935,310.506714 191.463226,309.580566 
	C196.450928,308.648285 200.167252,310.878174 203.493134,317.146301 
	C203.751572,318.159088 203.871414,318.578094 203.951630,319.246338 
	C203.964661,319.655457 204.017334,319.815247 203.978149,320.437500 
	C203.968109,330.943451 204.049911,340.986969 204.131729,351.030518 
M193.512466,317.166748 
	C192.387009,318.826904 190.336075,320.460358 190.287247,322.151581 
	C189.984894,332.626770 190.148087,343.114990 190.119125,353.598785 
	C190.112366,356.047455 190.156647,358.858856 193.367126,358.431427 
	C194.497375,358.280975 196.017044,355.344513 196.057114,353.649323 
	C196.304733,343.171356 196.260025,332.683319 196.097275,322.201965 
	C196.072220,320.588196 194.937012,318.991608 193.512466,317.166748 
z"/>
<path fill="#F3F3F3" opacity="1.000000" stroke="none" 
	d="
M288.853088,360.573181 
	C291.275208,344.340973 293.664398,328.540161 295.927551,312.721252 
	C296.276031,310.285278 297.134064,309.156067 299.727875,309.381531 
	C302.016418,309.580505 304.335938,309.423187 306.647064,309.423187 
	C306.948761,310.403412 307.211700,311.017242 307.323914,311.657471 
	C310.481354,329.668762 313.623566,347.682709 316.844879,366.135010 
	C314.185242,366.135010 311.804779,366.135010 308.989807,366.135010 
	C308.099731,360.053925 307.189667,353.836365 306.227264,347.261047 
	C303.759949,347.261047 301.353394,347.261047 298.389618,347.261047 
	C297.547028,353.400360 296.674500,359.757904 295.776825,366.298553 
	C293.205414,366.298553 290.920715,366.298553 288.057922,366.298553 
	C288.310883,364.438812 288.544861,362.718719 288.853088,360.573181 
M300.035797,332.898315 
	C299.905151,334.825348 299.774536,336.752411 299.633911,338.826843 
	C301.550903,338.826843 303.218506,338.826843 305.352112,338.826843 
	C304.331726,334.901550 303.423370,331.407349 302.515045,327.913177 
	C302.171204,327.864410 301.827362,327.815674 301.483521,327.766937 
	C301.002899,329.173065 300.522278,330.579163 300.035797,332.898315 
z"/>
<path fill="#F7F7F7" opacity="1.000000" stroke="none" 
	d="
M263.298004,344.886017 
	C263.298004,333.298187 263.298004,321.710327 263.298004,310.498444 
	C264.268280,309.962250 264.537598,309.688629 264.818756,309.675842 
	C283.369324,308.832458 285.044342,310.444366 285.037384,329.098969 
	C285.035583,333.919952 285.092590,338.742188 284.993622,343.561218 
	C284.960144,345.193390 285.122070,347.424469 284.180786,348.343811 
	C279.149231,353.258209 282.304443,357.943909 284.098389,362.735687 
	C284.492859,363.789276 284.791473,364.878693 285.258667,366.341309 
	C280.596008,366.873993 276.226837,368.000977 275.156433,360.998566 
	C274.589630,359.580780 274.180542,358.814941 273.746155,357.678802 
	C273.257538,356.461090 272.794220,355.613708 272.330902,354.766296 
	C272.011536,354.834961 271.692169,354.903595 271.372803,354.972260 
	C271.372803,356.289398 271.372803,357.606506 271.251068,359.277039 
	C271.211029,360.115021 271.292725,360.599670 271.374451,361.084290 
	C271.272675,362.732208 271.170898,364.380096 271.049835,366.340210 
	C268.680817,366.340210 266.444275,366.340210 263.496307,366.340210 
	C263.496307,362.872986 263.496307,359.441162 263.567871,355.124664 
	C263.525635,351.121979 263.411835,348.003998 263.298004,344.886017 
M276.738800,318.296844 
	C275.093597,317.902740 273.448395,317.508636 271.423340,317.023529 
	C271.423340,327.342865 271.423340,336.917114 271.423340,346.514282 
	C275.624237,347.680939 277.429810,346.610443 277.246826,342.086517 
	C276.937683,334.442474 277.101776,326.779297 276.738800,318.296844 
z"/>
<path fill="#F2F2F2" opacity="1.000000" stroke="none" 
	d="
M259.836548,358.117035 
	C256.961060,366.700470 248.227341,370.337433 242.062683,364.969635 
	C239.772278,362.975311 238.095459,359.099121 237.969116,356.006317 
	C237.494370,344.384644 237.758896,332.732056 237.777039,321.091125 
	C237.790588,312.396027 241.655975,308.338745 249.567017,308.642761 
	C256.728729,308.917969 260.247406,313.708221 259.495544,322.595245 
	C257.162750,322.595245 254.782867,322.595245 252.001083,322.595245 
	C251.930389,321.605042 252.225189,320.245239 251.684921,319.459869 
	C250.884506,318.296326 249.596405,317.136841 248.301880,316.801208 
	C247.753677,316.659088 246.139557,318.514679 245.930542,319.634186 
	C245.540741,321.721954 245.824326,323.935516 245.763382,326.993317 
	C245.679947,337.045471 245.525665,346.204956 245.790909,355.352264 
	C245.829605,356.687073 247.869614,357.963867 248.983582,359.267487 
	C249.966110,358.031403 251.735291,356.833527 251.797440,355.552765 
	C252.095337,349.416199 251.931168,343.257172 251.931168,336.974854 
	C250.376144,336.551239 249.010651,336.179230 247.320816,335.718903 
	C247.550262,333.224426 247.759247,330.952179 247.968246,328.679932 
	C251.363022,328.671967 254.757782,328.664032 258.846252,329.079468 
	C259.638794,339.040894 259.737671,348.578979 259.836548,358.117035 
z"/>
<path fill="#F6F6F6" opacity="1.000000" stroke="none" 
	d="
M368.067230,365.030579 
	C365.552765,365.617249 363.038269,366.203918 360.005463,366.911530 
	C360.005463,356.316864 360.005463,346.759094 360.005463,336.905487 
	C357.785126,336.905487 355.904968,336.905487 353.614960,336.905487 
	C353.614960,346.557587 353.614960,356.103149 353.614960,366.005676 
	C350.986847,366.005676 348.755859,366.005676 345.750122,366.005676 
	C345.750122,359.432281 345.750122,352.711670 345.806580,345.106567 
	C345.824677,341.831482 345.786377,339.440887 345.863281,336.635315 
	C345.901184,334.795776 345.823822,333.371216 345.816040,331.489197 
	C345.781799,326.660217 345.678009,322.288696 345.574188,317.917145 
	C345.699402,315.310333 345.824615,312.703491 345.962799,309.827271 
	C348.433838,309.827271 350.654297,309.827271 353.418884,309.827271 
	C353.418884,316.163208 353.418884,322.367645 353.418884,328.707672 
	C355.752838,328.707672 357.545990,328.707672 359.964783,328.707672 
	C359.964783,324.799835 359.964783,320.885315 360.056732,316.101379 
	C360.062317,313.805634 359.975952,312.379272 359.889587,310.952942 
	C362.317169,310.550446 364.744720,310.147919 367.452332,310.404999 
	C367.844025,329.053253 367.955627,347.041901 368.067230,365.030579 
z"/>
<path fill="#F5F5F5" opacity="1.000000" stroke="none" 
	d="
M164.565887,363.104706 
	C164.315475,369.109283 159.991302,365.849976 156.948273,366.660248 
	C156.948273,347.598938 156.948273,328.894104 156.948273,310.206116 
	C157.275818,310.015717 157.544174,309.727356 157.823502,309.716339 
	C174.149734,309.070312 179.137665,309.010895 178.191238,328.968475 
	C177.962814,333.785248 178.207214,338.622833 178.124222,343.448944 
	C178.095993,345.090210 178.343628,347.354553 177.416382,348.259491 
	C172.242020,353.309296 175.685806,358.153717 177.313675,363.083923 
	C177.616714,364.001709 177.921432,364.918976 178.343597,366.193298 
	C173.569366,367.149200 169.484924,367.701477 168.235992,360.899048 
	C167.246689,358.328735 166.450134,356.449646 165.653580,354.570587 
	C165.162674,354.714264 164.671768,354.857941 164.180862,355.001617 
	C164.309204,357.702667 164.437546,360.403687 164.565887,363.104706 
M170.434662,335.448212 
	C170.431000,330.974365 170.224258,326.488922 170.479767,322.029907 
	C170.744568,317.408417 168.603073,316.582092 164.682220,317.637939 
	C164.682220,327.390564 164.682220,337.040009 164.682220,346.580322 
	C169.306808,347.836609 170.908554,346.107544 170.468323,341.886383 
	C170.280273,340.083252 170.435410,338.244293 170.434662,335.448212 
z"/>
<path fill="#F3F3F3" opacity="1.000000" stroke="none" 
	d="
M418.897461,316.408264 
	C415.602325,319.759552 415.321838,324.951233 417.888489,328.694336 
	C420.238586,332.121643 422.311188,335.868347 425.219757,338.755280 
	C430.444672,343.941376 430.680908,350.145538 430.151215,356.716919 
	C429.707703,362.218781 425.605225,366.462189 420.317444,366.932465 
	C414.672974,367.434448 409.770599,363.973480 408.726227,358.219910 
	C408.114075,354.847565 408.291229,351.331970 408.092957,347.485443 
	C410.967407,347.485443 413.365631,347.485443 416.309235,347.485443 
	C416.309235,350.147675 416.004089,352.827728 416.437744,355.382416 
	C416.655151,356.663116 418.218475,357.715302 419.173096,358.870819 
	C420.202881,357.629608 422.225159,356.256439 422.080933,355.171265 
	C421.600739,351.558350 420.871063,347.781067 419.243622,344.570343 
	C417.388153,340.909821 414.722321,337.559265 411.951996,334.485596 
	C407.089172,329.090271 407.652771,322.884491 408.876617,316.651459 
	C409.910614,311.385162 414.613373,308.013428 419.725098,308.206940 
	C424.966339,308.405334 429.513611,312.521210 430.044830,317.943176 
	C430.350311,321.061279 430.100159,324.233826 430.100159,327.720581 
	C427.627075,327.720581 425.241364,327.720581 422.910492,327.720581 
	C420.555664,324.248749 424.979645,318.757721 418.897461,316.408264 
z"/>
<path fill="#F6F6F6" opacity="1.000000" stroke="none" 
	d="
M342.235443,345.047852 
	C340.944183,352.536377 336.038208,355.209869 328.538605,354.529785 
	C328.538605,358.572113 328.538605,362.160492 328.538605,366.049561 
	C325.867584,366.049561 323.622498,366.049561 321.028198,366.049561 
	C321.028198,347.377625 321.028198,328.686768 321.028198,310.012756 
	C334.343506,308.085022 338.926392,309.728729 341.816193,318.128479 
	C341.971375,322.587036 342.025848,326.285004 341.968140,330.418091 
	C341.929810,333.241089 342.003662,335.628998 342.010254,338.453918 
	C342.040436,340.943237 342.137939,342.995544 342.235443,345.047852 
M328.300018,334.483154 
	C328.300018,338.553772 328.300018,342.624390 328.300018,346.534760 
	C332.819000,347.596710 334.588348,346.440552 334.435638,342.220856 
	C334.195435,335.582458 334.216583,328.924255 334.423767,322.283722 
	C334.557129,318.007874 333.015411,316.393982 328.300568,317.755859 
	C328.300568,322.930817 328.300568,328.210236 328.300018,334.483154 
z"/>
<path fill="#F1F1F1" opacity="1.000000" stroke="none" 
	d="
M390.986023,325.146851 
	C390.984497,334.622498 390.944672,343.618439 391.007782,352.613647 
	C391.024261,354.959229 390.194946,358.324951 393.943451,358.142395 
	C394.971069,358.092377 395.883759,354.774597 396.752045,352.911072 
	C397.013184,352.350525 396.946198,351.637115 397.062927,350.735962 
	C399.447296,350.735962 401.717316,350.735962 403.995483,350.735962 
	C405.519379,356.917664 403.938812,361.951691 399.592407,364.727600 
	C395.883881,367.096069 390.121094,367.059998 387.121490,363.695679 
	C385.073273,361.398438 383.284210,357.991272 383.165100,355.009003 
	C382.713318,343.699402 382.855621,332.358551 383.041138,321.033752 
	C383.159058,313.835632 388.229858,309.137451 394.742798,309.667542 
	C401.411377,310.210358 405.294464,315.764191 404.168488,323.470276 
	C401.948303,323.470276 399.682404,323.470276 397.167175,323.470276 
	C397.041870,322.892426 397.072174,322.177399 396.749237,321.702759 
	C395.768860,320.261871 394.651886,318.913971 393.588104,317.529846 
	C392.722137,319.075897 391.746429,320.574066 391.041168,322.190247 
	C390.735626,322.890472 390.987427,323.833893 390.986023,325.146851 
z"/>
<path fill="#FBFBFB" opacity="1.000000" stroke="none" 
	d="
M130.297592,321.017517 
	C130.297592,333.784637 130.297592,346.055511 130.297592,358.705444 
	C134.062668,358.705444 137.322250,358.705444 140.929169,358.705444 
	C140.929169,361.318176 140.929169,363.552124 140.929169,366.128632 
	C135.115555,366.128632 129.235840,366.128632 123.059685,366.128632 
	C123.059685,347.412689 123.059685,328.672943 123.059685,309.606659 
	C125.267197,309.606659 127.490494,309.606659 130.297592,309.606659 
	C130.297592,313.301514 130.297592,316.911346 130.297592,321.017517 
z"/>
<path fill="#EFEFEF" opacity="1.000000" stroke="none" 
	d="
M152.989838,313.306732 
	C152.989716,331.029388 152.989716,348.287476 152.989716,365.849426 
	C150.298309,365.849426 147.919174,365.849426 145.289764,365.849426 
	C145.289764,347.162476 145.289764,328.624817 145.289764,309.552277 
	C148.054077,310.715973 152.529922,306.269318 152.989838,313.306732 
z"/>
<path fill="#FFFFFF" opacity="1.000000" stroke="none" 
	d="
M371.825226,309.909576 
	C374.108154,309.722382 376.391083,309.535156 379.018372,309.319733 
	C379.018372,328.272308 379.018372,346.859344 379.018372,366.130646 
	C377.076508,366.130646 374.989746,366.130646 372.410889,365.603943 
	C371.887665,346.688019 371.856445,328.298798 371.825226,309.909576 
z"/>
<path fill="#4B4B4B" opacity="1.000000" stroke="none" 
	d="
M371.499512,309.879272 
	C371.856445,328.298798 371.887665,346.688019 371.946960,365.546204 
	C370.903748,365.688904 369.832428,365.362640 368.414154,365.033508 
	C367.955627,347.041901 367.844025,329.053253 367.843811,310.619019 
	C369.028107,310.065338 370.100952,309.957153 371.499512,309.879272 
z"/>
<path fill="#2A2A2A" opacity="1.000000" stroke="none" 
	d="
M203.991272,318.997070 
	C203.871414,318.578094 203.751572,318.159088 203.691895,317.415039 
	C204.837448,314.771606 205.922852,312.453308 207.373291,310.040009 
	C207.779434,328.011292 207.820526,346.077545 207.751358,364.605286 
	C207.110855,363.541473 206.368317,362.053101 206.095490,360.483063 
	C205.562698,357.416931 205.292450,354.305176 204.522614,351.121399 
	C204.049911,340.986969 203.968109,330.943451 204.151337,320.343750 
	C204.274673,319.524078 204.132965,319.260590 203.991272,318.997070 
z"/>
<path fill="#313131" opacity="1.000000" stroke="none" 
	d="
M247.963333,328.383057 
	C247.759247,330.952179 247.550262,333.224426 247.320816,335.718903 
	C249.010651,336.179230 250.376144,336.551239 251.931168,336.974854 
	C251.931168,343.257172 252.095337,349.416199 251.797440,355.552765 
	C251.735291,356.833527 249.966110,358.031403 248.983582,359.267487 
	C247.869614,357.963867 245.829605,356.687073 245.790909,355.352264 
	C245.525665,346.204956 245.679947,337.045471 245.854767,327.443481 
	C246.659775,327.360077 247.309097,327.723145 247.963333,328.383057 
z"/>
<path fill="#313131" opacity="1.000000" stroke="none" 
	d="
M260.128784,357.890015 
	C259.737671,348.578979 259.638794,339.040894 259.309174,329.055054 
	C260.003693,330.600861 261.742523,332.607605 261.710449,334.585693 
	C261.585602,342.283081 260.898773,349.971344 260.128784,357.890015 
z"/>
<path fill="#2A2A2A" opacity="1.000000" stroke="none" 
	d="
M342.080322,329.982971 
	C342.025848,326.285004 341.971375,322.587036 342.002930,318.434174 
	C343.018188,317.940430 343.947479,317.901611 345.225464,317.889954 
	C345.678009,322.288696 345.781799,326.660217 345.511841,331.430481 
	C344.118835,331.213776 343.099579,330.598358 342.080322,329.982971 
z"/>
<path fill="#2A2A2A" opacity="1.000000" stroke="none" 
	d="
M225.726013,326.904541 
	C226.060501,332.585724 226.060501,338.148529 226.060501,343.711304 
	C225.717056,343.765961 225.373596,343.820618 225.030151,343.875275 
	C224.218430,338.259460 223.406708,332.643677 222.644531,326.592316 
	C223.593216,326.366547 224.492355,326.576355 225.726013,326.904541 
z"/>
<path fill="#2A2A2A" opacity="1.000000" stroke="none" 
	d="
M342.570801,345.061279 
	C342.137939,342.995544 342.040436,340.943237 342.326385,338.410828 
	C343.722565,337.637207 344.735291,337.343750 345.748047,337.050293 
	C345.786377,339.440887 345.824677,341.831482 345.722229,344.650177 
	C344.689667,345.077118 343.797882,345.075928 342.570801,345.061279 
z"/>
<path fill="#313131" opacity="1.000000" stroke="none" 
	d="
M164.855560,363.012024 
	C164.437546,360.403687 164.309204,357.702667 164.180862,355.001617 
	C164.671768,354.857941 165.162674,354.714264 165.653580,354.570587 
	C166.450134,356.449646 167.246689,358.328735 168.026016,360.602570 
	C167.054260,361.638000 166.099747,362.278656 164.855560,363.012024 
z"/>
<path fill="#313131" opacity="1.000000" stroke="none" 
	d="
M262.987793,345.071350 
	C263.411835,348.003998 263.525635,351.121979 263.469360,354.678955 
	C263.092041,351.830841 262.884796,348.543762 262.987793,345.071350 
z"/>
<path fill="#4B4B4B" opacity="1.000000" stroke="none" 
	d="
M359.557220,311.048309 
	C359.975952,312.379272 360.062317,313.805634 360.011902,315.641846 
	C359.658417,314.415741 359.441650,312.779694 359.557220,311.048309 
z"/>
<path fill="#313131" opacity="1.000000" stroke="none" 
	d="
M273.771454,358.049103 
	C274.180542,358.814941 274.589630,359.580780 274.973175,360.680939 
	C273.995697,361.029724 273.043762,361.044159 271.733124,361.071472 
	C271.292725,360.599670 271.211029,360.115021 271.509430,359.228729 
	C272.516815,358.567719 273.144135,358.308411 273.771454,358.049103 
z"/>
<path fill="#2A2A2A" opacity="1.000000" stroke="none" 
	d="
M222.714539,323.981934 
	C222.178635,323.038391 221.965942,322.007904 221.718399,320.581268 
	C222.401428,320.197876 223.119324,320.210571 223.837219,320.223297 
	C223.570724,321.447205 223.304230,322.671082 222.714539,323.981934 
z"/>
<path fill="#0D0D0D" opacity="1.000000" stroke="none" 
	d="
M193.913849,317.276917 
	C194.937012,318.991608 196.072220,320.588196 196.097275,322.201965 
	C196.260025,332.683319 196.304733,343.171356 196.057114,353.649323 
	C196.017044,355.344513 194.497375,358.280975 193.367126,358.431427 
	C190.156647,358.858856 190.112366,356.047455 190.119125,353.598785 
	C190.148087,343.114990 189.984894,332.626770 190.287247,322.151581 
	C190.336075,320.460358 192.387009,318.826904 193.913849,317.276917 
z"/>
<path fill="#020202" opacity="1.000000" stroke="none" 
	d="
M203.951630,319.246338 
	C204.132965,319.260590 204.274673,319.524078 204.243195,319.881348 
	C204.017334,319.815247 203.964661,319.655457 203.951630,319.246338 
z"/>
<path fill="#171717" opacity="1.000000" stroke="none" 
	d="
M300.038696,332.441803 
	C300.522278,330.579163 301.002899,329.173065 301.483521,327.766937 
	C301.827362,327.815674 302.171204,327.864410 302.515045,327.913177 
	C303.423370,331.407349 304.331726,334.901550 305.352112,338.826843 
	C303.218506,338.826843 301.550903,338.826843 299.633911,338.826843 
	C299.774536,336.752411 299.905151,334.825348 300.038696,332.441803 
z"/>
<path fill="#111111" opacity="1.000000" stroke="none" 
	d="
M276.902832,318.710510 
	C277.101776,326.779297 276.937683,334.442474 277.246826,342.086517 
	C277.429810,346.610443 275.624237,347.680939 271.423340,346.514282 
	C271.423340,336.917114 271.423340,327.342865 271.423340,317.023529 
	C273.448395,317.508636 275.093597,317.902740 276.902832,318.710510 
z"/>
<path fill="#020202" opacity="1.000000" stroke="none" 
	d="
M273.746155,357.678802 
	C273.144135,358.308411 272.516815,358.567719 271.631165,358.875366 
	C271.372803,357.606506 271.372803,356.289398 271.372803,354.972260 
	C271.692169,354.903595 272.011536,354.834961 272.330902,354.766296 
	C272.794220,355.613708 273.257538,356.461090 273.746155,357.678802 
z"/>
<path fill="#4B4B4B" opacity="1.000000" stroke="none" 
	d="
M345.863281,336.635315 
	C344.735291,337.343750 343.722565,337.637207 342.393677,337.973816 
	C342.003662,335.628998 341.929810,333.241089 341.968140,330.418091 
	C343.099579,330.598358 344.118835,331.213776 345.442261,331.887939 
	C345.823822,333.371216 345.901184,334.795776 345.863281,336.635315 
z"/>
<path fill="#171717" opacity="1.000000" stroke="none" 
	d="
M170.434631,335.934937 
	C170.435410,338.244293 170.280273,340.083252 170.468323,341.886383 
	C170.908554,346.107544 169.306808,347.836609 164.682220,346.580322 
	C164.682220,337.040009 164.682220,327.390564 164.682220,317.637939 
	C168.603073,316.582092 170.744568,317.408417 170.479767,322.029907 
	C170.224258,326.488922 170.431000,330.974365 170.434631,335.934937 
z"/>
<path fill="#1E1E1E" opacity="1.000000" stroke="none" 
	d="
M328.300293,333.986420 
	C328.300568,328.210236 328.300568,322.930817 328.300568,317.755859 
	C333.015411,316.393982 334.557129,318.007874 334.423767,322.283722 
	C334.216583,328.924255 334.195435,335.582458 334.435638,342.220856 
	C334.588348,346.440552 332.819000,347.596710 328.300018,346.534760 
	C328.300018,342.624390 328.300018,338.553772 328.300293,333.986420 
z"/>
</svg>